<svg xmlns="http://www.w3.org/2000/svg" xmlns:xlink="http://www.w3.org/1999/xlink" width="348.434" height="76.597" viewBox="0 0 348.434 76.597">
  <defs>
    <clipPath id="clip-path">
      <rect id="Rectangle_213" data-name="Rectangle 213" width="70.547" height="347.256"/>
    </clipPath>
  </defs>
  <g id="Group_783" data-name="Group 783" transform="translate(1.391 85.765) rotate(-91)">
    <g id="Group_441" data-name="Group 441" transform="translate(9.169)" clip-path="url(#clip-path)">
      <path id="Path_2196" data-name="Path 2196" d="M2.5,314.4v5.487a12.885,12.885,0,0,1,.8,2.417,10.16,10.16,0,0,0,1.229,2.142,4.5,4.5,0,0,1,1.192-.785c.276-.073.526.358.456.979l.629.433v5.558a12.119,12.119,0,0,0,1.226-3.458l1.619-1.344c.7,1.312-.257,1.756-.461,2.88.126.371.313.92.546,1.6-.069.634-.91,1.163-.34,2.268.217.143.217.143,1.514-2.027.126-.593.253-1.184.389-1.826a3.4,3.4,0,0,1,.383.725c.109.429.156.9.249,1.474.352-.621.631-1.112.928-1.634a5.77,5.77,0,0,1,.658-3.1v-4.041c.212-.38.419-.747.628-1.124V318l.629-1.135v-5.637c.273-.977.421-1.562.6-2.121.135-.427.306-.821.609-1.619v-3.7c.252-.742.485-.745.523-.258.114,1.44,1.089,2.462.7,4.124.673,1.338.877,3.215,1.814,4.158-.246.5-.434.879-.7,1.419.2.538.392,1.08.687,1.888V317.8c.208.405.4.779.629,1.216v5.829l1.269,3.661c0,1.476,0,3.177.009,4.875,0,.122.135.241.262.452.417-1.387.825-2.735,1.228-4.073h.742c.1.9.206,1.839.337,3.006l.875-.866c.135.6.269,1.188.449,1.984l1.089-.356-.623-1.041c.257-.879.526-1.8.82-2.8.629,1.555.065,3.337.43,4.886.144.241.289.482.539.9v4.367l1.006.134c.078-.518.146-.979.245-1.647l.945-.55c.58-1.5-.169-3.324.416-4.847a5.175,5.175,0,0,1,.449,2.635c.332.2.687.408,1.122.668.043,2.456.084,4.965.139,7.474,0,.124.135.241.243.42.6-1.523.06-3.283.407-4.881.508-.514.511.766.876.751l.714-.109c.082-.89.167-1.826.25-2.733.129-.038.249-.115.267-.073.451,1.067.129,2.281.225,3.42.494.928,1.083.5,1.666.312a12.52,12.52,0,0,0,.163-3.448c.036-1.191.008-2.385.008-3.58s-.037-2.389.011-3.576c.046-1.141-.26-2.358.226-3.437.649.452.319,1.387.364,2.1.051.83.011,1.677.011,1.988.4,1.3.659,2.146.932,3.034.619-1.53.051-3.313.426-4.888.442-.429.425.226.475.623a5.178,5.178,0,0,0,.237,2.076c.61.055,1.3.117,1.952.175.277.9.539,1.741.917,2.966a4.751,4.751,0,0,0,.162,2.025q.655-1.616,1.223-3.015h.753c.6,1.474.042,3.251.423,4.931.564.066.349-.751.486-1.184a9.8,9.8,0,0,1,.783-1.562c.479-.088.96-.177,1.434-.262.421-1.126.129-2.332.218-3.441.2-.375.395-.732.585-1.086l-.52-.868V324.91c.636-.324.706.866,1.088,1.148-.019,1.577.8,2.2,1.295,3.194,0,.683,0,1.363,0,2.05,1.213,1.451,1.4,4.357,2.883,5.59q.119-.723.223-1.374c-.239-.427-.446-.794-.656-1.171a8.13,8.13,0,0,1,.086-1.459c-.389-.166-.863-.092-.448-.988a9.021,9.021,0,0,1,.448.988c1.339.587,1.546,3.032,2.366,4.568-.112,1.449.675,1.929,1.138,2.936.046.676.1,1.479.154,2.283.415.76.956.222,1.427.4.553-.572.222-1.523.364-2.259a11.893,11.893,0,0,1,.675-1.822l-.618-1.6v-3.222c.147-.107.28-.213.282-.2.266.838.522,1.683.867,2.825v1.654c.211.373.416.74.627,1.116v1.967c.22.412.417.781.626,1.169v2.983l.946,1.581c.578-1.933.006-4.013.363-5.906a3.25,3.25,0,0,1,.208-.284c.414.661.817,1.338,1.26,2.078.192-.794.331-1.376.471-1.959,1.1.09.68,2.5,1.541,2.934.218-.126.453-.141.566-.344a8.93,8.93,0,0,0,1.424-2.859c-.171-.4-.391-.92-.663-1.564v-2.878c.135-.58.691-.747.6-1.6-.627-.606-.627-.606-.357-1.961.655.38.245,1.3.359,1.961l.55-.378v-6.381l-.523-.875v-5.033c-.211-.393-.411-.764-.629-1.173V314.98l-.629-1.137v-5.088c-.149-.252-.294-.493-.548-.915-.163-1.621.028-3.478-.1-5.3-.144-.241-.289-.482-.541-.9v-4.1l-.59-.986v-9.264c.107-.215.294-.593.518-1.048.231-1.065-.248-2.473.366-3.572.116.194.252.314.252.435.011,3.744.009,7.489.009,11.05.419,1.745,1.569,1.562,2.124,2.739.942-.356,1.638.834,2.381,1.259.172-.258.31-.367.313-.482.066-4.555.121-9.112.176-13.593.189-.314.333-.555.515-.86V272.839c.41-.531.89-1.15,1.263-1.63,0-1.69-.005-3.053.01-4.416,0-.124.13-.243.212-.388,1,.44-.167,2.272.711,2.81l.689-.994c.5,2.663,0,5.364.309,8.084.269.083.548.171.832.26.629-1.56.047-3.345.449-4.952.816-.156.2,1.342.7,1.632.6.034.285-.839.4-1.415.254-.4.549-.868.852-1.348.264.181.315.484.406,2.475.3.529.576,1.022.859,1.523.269-.877.527-1.715.822-2.678l-.5-.928c.188-.344.382-.7.575-1.06l-.44-.736a1.3,1.3,0,0,1-.144-.407c-.011-1.348-.008-2.7-.008-3.943.208-.346.352-.587.563-.941l-.5-1.054v-5.287c.212-.352.356-.593.52-.868-.189-.354-.379-.708-.582-1.09v-4.056l.7-1.254c-.139-.5-.3-1.077-.456-1.649l-.092.073a1.335,1.335,0,0,1-.148-.405c-.006-6.467-.006-12.936-.006-19.311l-.56-.937c.147-.316.3-.651.492-1.058.55-1.831-.938-3.17-.534-5.082.2-.67.831-1.041.6-2.1-.2-.365-.407-.736-.618-1.118v-12.21l-.564-1.067.554-1.088c.22-1.534-1.341-2.125-.623-3.83.189-.378.379-.753.595-1.182l-.539-1.033.568-1.067q-.218-.362-.434-.723a1.214,1.214,0,0,1-.156-.4c-.009-4.081-.008-8.163-.008-12.163l-.481-.8c-.429-1.323.109-2.368.361-3.495-.144-.241-.289-.482-.461-.768.181-.35.365-.7.552-1.062-.188-.346-.386-.708-.587-1.082V162.342c-.2-.382-.393-.736-.571-1.067l.68-1.323c-.18-.531-.365-1.082-.719-2.127V107.017c-.243-.405-.387-.646-.572-.958.169-.339.342-.687.534-1.073l-.569-1.065V26.048l-1-1.38c-.312-.06-.793-.149-1.335-.252-.06-.491-.119-.956-.181-1.466-.52-.612-1.269-.732-1.715-1.9l.475-1c-.1-.879-.59-.459-.885-.676-.263-.845-.523-1.681-.876-2.816V13.821c-.144-.235-.289-.474-.558-.915-.019-.431-.05-1.075-.086-1.843C69,10.194,68.7,9.208,68.4,8.208H67.8c-.23-.348-.449-.681-.669-1.011L65.956,9.166c-.43-.76-.392-2.035-.966-2.611V4.579c-.091-.149-.149-.326-.236-.382-.423-.265-.757-.051-1.048.525-.315.619-.682.567-1.116,0,.169-.354.331-.693.475-1-.232-.819-.467-1.647-.735-2.59H60.96c-.171.286-.315.527-.5.845H57.6c-.692.644-1.284,1.154-1.85,1.739-.486.5-1.167.429-1.489,1.408-.944.075-1.369.979-1.532,2.464a3.55,3.55,0,0,1-.589,1.15v3.047c-.289.476-.578.954-.9,1.491-.637-1.077-.125-2.5-.359-3.51-.334-.61-.61-1.112-.855-1.558H48.766c-.428.491-.254,1.22-.314,1.856-.04.405-.162.787-.359,1.69a29.368,29.368,0,0,1-.252-5.007,7.9,7.9,0,0,1-.853-2.6c-.217.3-.423.576-.749,1.02-.387-.9-.8-1.839-1.247-2.884,0,0,.179-.352.356-.7C45.246.986,44.68.83,44.783,0H43.557c.029,1.045-.622,1.25-.861,2H41.43c-.176-.265-.4-.6-.638-.964h-1.2c-.7.717-.885,2.059-1.315,3.119a12.63,12.63,0,0,1-1.214,2.093c-.425,1.56-.7,2.56-.789,2.9l-2.327,4.088H32.786c-.475-.787-.148-1.69-.26-2.49-.5-.755-1.429-.642-1.66-1.818a6.392,6.392,0,0,0-1.113-2.774H27.326l-.774,1.176L25.247,6.224a.831.831,0,0,0-1.289.435c-.407.8-.932.4-1.646.582-.214.582-.537,1.457-.836,2.266A6.4,6.4,0,0,1,20.1,6.439c-.227-1.171-1.149-1.084-1.662-1.824V2.567c-.589-1.067-1.344-.314-2.058-.536l-.709.99h-1.2c-.17-.252-.393-.585-.64-.954h-1.32L11.121,4.536c.277,1.333-.952,1.784-.656,3.128-.48,1.009-1.182,1.651-1.339,3.183-.1,1.018-.913,1.863-.972,2.857C8.08,14.952,7.24,15.517,7.4,16.8c-.666.629-.483,2.082-1.026,2.882s.059,2.178-.613,3.2c-.493.749-.183,2.4-.763,3.544-.382.753.268,2.306-.361,3.3s-.176,2.253-.313,3.48q-.232.454-.576,1.124V38.29c-.212.388-.415.757-.631,1.152v6.085l-.423.742c-.066.124-.188.25-.188.375Q2.492,56.358,2.5,66.054l-.444.742a1.155,1.155,0,0,0-.161.395c-.01,2.035-.008,4.071-.008,6.031L1.3,74.2v6.147c-.252.418-.4.659-.586.979V89.7c.2.335.343.576.522.875V162.25c-.12.243-.306.623-.526,1.067.16.311.338.664.545,1.067v2.01c-.181.324-.387.693-.6,1.069V210.41l-.61,1.105c-.23,1.062.4,1.432.679,2.368l-.619,2.008V265.8l.661,1.336-.684,1.9v2.829c.132.256.326.629.521,1.009-.721,1.6-.721,1.6.023,3.17l-.433.723c-.028.122-.1.3-.077.352.179.388.378.749.652,1.274l-.629,1.747c.114.228.287.574.5.99v4.056l-.578,1.048.612,1.1v10.185l.444.742a1.263,1.263,0,0,1,.149.4c.009,3.738.006,7.478.006,11.122l.6,1v3.179l.629.433v-7.657c-.2-.371-.4-.728-.578-1.06l.522-1.039-.612-1.257V288.187l-.6-1v-25.6c-.253-.42-.4-.664-.543-.9.241-.666.817-1.077.636-1.852C1,258.1.777,257.593.532,257.042l.7-1.628v-7.068l-.522-1.112c.211-.354.356-.6.5-.836a3.732,3.732,0,0,0,.059-.469q0-19.714.009-39.427a1.3,1.3,0,0,1,.148-.405l.439-.734c-.2-.363-.395-.723-.587-1.077v-2.01c.216-.4.417-.766.582-1.067V194.08l-.546-1.109.586-.979v-25.6c.253-.42.4-.664.567-.947l-.572-1.1v-2c.189-.348.387-.715.577-1.065-.188-.356-.373-.71-.543-1.035l.525-1.073-.527-.881c.166-.337.337-.683.53-1.075l-.566-1.065v-3.032c.2-.358.4-.728.6-1.09.246-1.022-.4-1.383-.541-2.067l.5-1.035c-.2-.329-.342-.57-.527-.881.17-.339.342-.687.534-1.073-.176-.331-.368-.687-.571-1.065v-3.023c.2-.363.395-.723.58-1.06-.192-.375-.372-.725-.548-1.073l.521-.87V93.61c-.192-.322-.336-.563-.518-.866.172-.344.349-.693.54-1.073-.181-.335-.375-.691-.566-1.041.2-.356.4-.723.582-1.043V87.709l-.673-1.651c.254-.715.434-1.218.609-1.709-.172-.288-.317-.529-.457-.762V77.2l.615-1.028V70.594c.48.143.827.247,1.146.341V73.2c-.213.386-.417.755-.589,1.067V86.519l.553,1.107c-.185.307-.329.548-.516.862V93.8c.2.339.346.58.554.928,0,1.244.005,2.594-.006,3.945a1.342,1.342,0,0,1-.147.408l-.44.736c.2.363.395.723.589,1.08v7.122c-.2.384-.392.738-.567,1.067.213.418.4.794.53,1.037v2.816c-.3.847-.49,1.393-.679,1.929.271.538.46.915.693,1.378v3.074a2.6,2.6,0,0,0-.56,2.031c.18.326.384.7.581,1.052v7.13c-.218.4-.419.772-.428.787-.452,1.474.319,1.732.391,2.215v3.145l-.632,1.336v37.7c-.208.348-.352.589-.483.809.227.67.453,1.333.654,1.929-.312.563-.516.934-.709,1.282V183.8l.554,1.069c-.216.433-.4.811-.517,1.035v2.789l.67,1.978c-.274.535-.467.911-.719,1.4,0,11.463,0,23.059-.006,34.655a1.18,1.18,0,0,1-.163.395c-.146.241-.29.482-.433.721l.572,1.056c-.189.367-.369.719-.531,1.035l.575,1.158c-.074.879.172,1.786-.331,2.424s-.216,1.564-.309,2.413c.243.636.8,1.063.6,2.17-.163.294-.368.663-.568,1.022.19.348.384.706.578,1.062l-.52.868v8.434c.144.241.289.482.433.725-.2.659-.4,1.321-.594,1.961l.67,1.276c-.184.339-.38.7-.58,1.065v2.006c.212.382.416.751.724,1.3-.2.61-.425,1.265-.645,1.922.14.235.286.476.537.9V285.22c.253.422.4.664.573.956-.179.348-.36.7-.566,1.1v2c.258.621.822,1.043.645,1.841-.318.725-.544,1.237-.784,1.781l.78,1.826v5.918l.475.794c-.211.655-.423,1.308-.623,1.927l.691,1.286c-.227.472-.462.956-.737,1.525.305.672.535,1.18.712,1.572,0,3.52,0,6.921-.009,10.322,0,.122-.135.241-.287.495a11.255,11.255,0,0,1-.255-1.308c-.06-.828-.041-1.671-.121-2.49-.015-.164-.326-.25-.5-.369M4.337,42.51c0-4.6,0-4.6.425-5.447.063.126.18.252.18.38.01,3.053.008,6.108.008,9.029-.268.6-.5,1.107-.7,1.56.294.894.52,1.583.73,2.223q-.4,1.152-.7,2.025c.186.96.841,1.3.632,2.475l-.623,1.212v8.122c-.241.405-.386.644-.563.941,0,.785.045,1.634-.013,2.464-.049.689.306,1.639-.364,2.027-.083-.141-.217-.258-.218-.38-.017-1.528-.024-3.053-.009-4.579a4.529,4.529,0,0,1,.184-.877c.143-.25.282-.493.42-.736q0-9.425.008-18.848a4.954,4.954,0,0,1,.184-.92c.135-.215.282-.448.421-.672M5.562,32.284c-.009,2.362-.009,2.362-.41,3.422a4.78,4.78,0,0,1-.185-2.375c-.009-.787-.181-1.641.357-2.037.157-.574.314-1.148.626-2.291.156,1.28.211,1.737.26,2.144l-.649,1.137m.919-7.708a1.759,1.759,0,0,1,0,2.052,1.763,1.763,0,0,1,0-2.052m60.363,269.85c-.068.113-.151.339-.2.32a1.755,1.755,0,0,1-.412-.32c.069-.113.152-.339.2-.32a1.726,1.726,0,0,1,.411.32M6.087,28.31l-.218.365a4.481,4.481,0,0,1-.192-.687c-.011-.085.124-.224.192-.337.074.222.147.444.218.659" transform="translate(-4.321 0)"/>
      <path id="Path_2197" data-name="Path 2197" d="M.216,5.541c.646-.892.248-1.8.573-2.921l.356-.661C.9,1.365.646.762.33,0a6.782,6.782,0,0,0-.31,1.3,20.209,20.209,0,0,0,.2,4.239" transform="translate(44.131 331.513)"/>
      <path id="Path_2198" data-name="Path 2198" d="M.985,3.072h.73c.061-.523.126-1.09.185-1.581C1.315.89.65.979.35,0-.205.928-.173,1.086.985,3.072" transform="translate(47.772 337.95)"/>
      <path id="Path_2199" data-name="Path 2199" d="M.247,4.982A13.673,13.673,0,0,0,.418,0C-.107.1-.107.1.247,4.982" transform="translate(-2.384 321.707)"/>
      <path id="Path_2200" data-name="Path 2200" d="M.218,0,0,.363A1.79,1.79,0,0,0,.411.685C.462.7.545.478.613.363.48.239.347.119.218,0" transform="translate(62.523 337.075)"/>
      <path id="Path_2201" data-name="Path 2201" d="M.626,0,0,.892c.535.7.49-.1.626-.892" transform="translate(1.298 324.35)"/>
    </g>
  </g>
</svg>
